<?xml version="1.0" standalone="no"?><!DOCTYPE svg PUBLIC "-//W3C//DTD SVG 1.1//EN" "http://www.w3.org/Graphics/SVG/1.1/DTD/svg11.dtd"><svg t="1647164076504" class="icon" viewBox="0 0 1024 1024" version="1.1" xmlns="http://www.w3.org/2000/svg" p-id="1611" xmlns:xlink="http://www.w3.org/1999/xlink" width="200" height="200"><defs><style type="text/css"></style></defs><path d="M474.4 916v-94.8l-28-11.2c-53.6-21.6-92-66.4-106-120.4h80.8c16.4 33.6 51.2 56.8 91.2 56.8 56 0 101.6-45.6 101.6-101.6 0-49.6-40.4-90.4-90.4-90.4h-12c-97.6 0-176.8-79.2-176.8-176.8 0-72.8 44-137.6 111.6-164.8l28-11.2V106.8h76.4v94.8l28 11.2c54.4 22 93.6 68 106.8 123.2h-80.4c-16-35.2-51.2-59.6-92.4-59.6-56 0-101.6 45.6-101.6 101.6 0 55.6 45.2 100.8 100.8 100.8h12c92 0 166.4 74.8 166.4 166.4 0 72.8-44 137.6-111.6 164.8l-28 11.2V916h-76.4z" fill="#FFD552" p-id="1612"></path><path d="M556.8 922.4H468v-96.8l-24-9.6c-54.4-22-95.2-68.4-109.6-124.4l-2-8h93.2l1.6 3.6c16 32.8 48.8 53.2 85.6 53.2 52.4 0 95.2-42.8 95.2-95.2 0-46.4-37.6-84-84-84h-12c-101.2 0-183.2-82.4-183.2-183.2 0-75.6 45.2-142.4 115.6-170.8l24-9.6V100.4h88.8v96.8l24 9.6c55.2 22.4 96.8 70 110.4 127.6l2 8h-92.4l-1.6-3.6c-15.6-34-49.6-56-86.8-56-52.4 0-95.2 42.8-95.2 95.2 0 52 42.4 94.4 94.4 94.4h12c95.2 0 172.8 77.6 172.8 172.8 0 75.6-45.2 142.4-115.6 170.8l-24 9.6v96.8z m-76-12.8H544v-92.8l32-12.8c65.2-26.4 107.6-88.8 107.6-159.2 0-88.4-72-160-160-160h-12c-59.2 0-107.2-48-107.2-107.2 0-59.6 48.4-108 108-108 40.8 0 78.4 23.2 96.4 59.6h68c-14.4-50-51.6-91.2-100.8-110.8l-32-12.8V112.8h-63.6v92.8l-32 12.8c-65.2 26.4-107.6 88.8-107.6 159.2 0 94 76.4 170.4 170.8 170.4h12c53.2 0 96.8 43.2 96.8 96.8 0 59.6-48.4 108-108 108-40 0-76-21.6-94.8-56.8H348.8c15.2 48.8 52 88.8 100 108l32 12.8v92.8z" fill="#4A555F" p-id="1613"></path><path d="M308.8 400H88V194.4h337.2l-20.8 12c-60 34-97.2 98-97.2 167.2 0 6.4 0.4 13.2 0.8 19.6l0.8 6.8z m-208-12.8h194.4c-0.4-4.4-0.4-9.2-0.4-14 0-66.4 32-128 85.2-166.4H100.8v180.4z" fill="#4A555F" p-id="1614"></path><path d="M115.6 372.4V222H340c-38 40-60 93.6-60.4 150.4h-164z" fill="#71CDE1" p-id="1615"></path><path d="M232.8 937.6L0 727.6l232.8-209.6V624h69.2v6.4c0 57.2 22 98.4 22.4 98.8 0 0.4 0.4 0.4 0.4 0.8 17.2 36.8 46.4 68 81.6 87.6l21.6 12H232.8v108zM18.8 727.6L220 908.8v-92h161.2c-29.2-20.8-52.8-48.8-68-81.2 0-0.4-22.4-40.8-24-99.2H220.4v-90.4L18.8 727.6z" fill="#4A555F" p-id="1616"></path><path d="M41.2 727.6l164.4-148v72h70c4 46.4 19.6 82 24.8 91.2 10.4 22 24.4 42 41.2 59.2h-136v73.6l-164.4-148z" fill="#E0E0E0" p-id="1617"></path><path d="M791.2 506V400h-69.2v-6.4c0-57.2-22-98.4-22.4-98.8 0-0.4-0.4-0.4-0.4-0.8-17.2-36.8-46.4-68-81.6-87.6l-21.6-12h195.2v-108L1024 296.4l-232.8 209.6z m-56.8-118.8h69.2v90.4l201.2-181.2-201.2-181.2v92h-161.2c29.2 20.8 52.8 48.8 68 81.2 0.4 0 22.4 40.8 24 98.8z" fill="#4A555F" p-id="1618"></path><path d="M818.4 372.4h-70c-4-46.4-19.6-82-24.8-91.2-10.4-22-24.4-42-41.2-59.2h136V148.4l164.4 148-164.4 148v-72z" fill="#71CDE1" p-id="1619"></path><path d="M936 829.6h-339.2l21.6-12c61.2-34 99.2-98.4 99.2-168.4 0-6.4-0.4-12.4-0.8-18l-0.8-7.2h220v205.6z m-292.4-12.8h280v-180h-193.6c0.4 4 0.4 8.4 0.4 12.4 0 67.2-32.8 129.6-86.8 167.6z" fill="#4A555F" p-id="1620"></path><path d="M683.6 802c38.4-40 61.2-93.6 61.6-150.4h163.6v150.4h-225.2z" fill="#E0E0E0" p-id="1621"></path></svg>